<?xml version="1.0" standalone="no"?>
<!DOCTYPE svg PUBLIC "-//W3C//DTD SVG 20010904//EN"
 "http://www.w3.org/TR/2001/REC-SVG-20010904/DTD/svg10.dtd">
<svg version="1.0" xmlns="http://www.w3.org/2000/svg"
 width="1280.000000pt" height="1061.000000pt" viewBox="0 0 1280.000000 1061.000000"
 preserveAspectRatio="xMidYMid meet">
<metadata>
Created by potrace 1.15, written by Peter Selinger 2001-2017
</metadata>
<g transform="translate(0.000000,1061.000000) scale(0.100000,-0.100000)"
fill="#000000" stroke="none">
<path d="M10035 10604 c-164 -18 -365 -74 -490 -137 -157 -79 -338 -234 -388
-334 -50 -98 -84 -230 -111 -433 -14 -102 -19 -115 -171 -453 -86 -192 -155
-350 -153 -352 2 -1 75 -13 163 -25 88 -13 163 -26 167 -29 4 -4 17 -88 29
-189 l21 -182 -21 -112 c-12 -61 -20 -112 -19 -113 2 -1 35 -25 73 -52 l70
-50 235 -32 c129 -18 238 -37 241 -43 8 -12 34 -337 28 -343 -3 -2 -189 -11
-414 -20 -429 -16 -519 -23 -700 -55 -198 -35 -339 -84 -422 -147 -79 -60
-191 -229 -444 -665 -213 -368 -295 -500 -363 -583 -28 -33 -192 -204 -365
-380 -419 -425 -551 -584 -646 -780 -93 -191 -97 -320 -16 -499 111 -244 274
-349 694 -445 143 -33 416 -76 549 -87 43 -4 82 -12 87 -18 5 -6 66 -120 136
-254 l128 -243 -51 -107 c-107 -227 -170 -457 -179 -662 -7 -156 6 -230 83
-460 104 -311 212 -510 365 -674 60 -64 165 -156 206 -179 6 -4 26 14 49 45
20 29 96 127 167 217 72 91 166 214 208 275 l77 110 -74 79 c-117 124 -229
307 -285 468 -20 56 -23 84 -23 219 0 103 6 193 18 268 10 61 19 112 20 112 0
1 73 9 161 19 146 17 161 21 180 44 11 13 126 138 255 277 190 204 236 258
238 284 2 17 -4 99 -12 181 l-16 150 28 23 c67 56 358 244 461 296 171 87 259
107 507 113 228 6 375 -9 574 -58 312 -76 545 -189 710 -345 248 -234 508
-648 579 -924 90 -344 86 -602 -14 -887 -39 -113 -108 -267 -148 -331 l-27
-42 131 -288 c72 -158 134 -289 136 -292 9 -9 137 135 203 228 139 196 212
380 274 692 74 370 84 740 26 1016 -66 318 -348 810 -673 1174 -167 188 -312
292 -602 435 -494 244 -977 304 -1482 185 -238 -56 -687 -237 -1075 -431
l-100 -50 -217 20 -216 20 -342 173 c-189 95 -343 176 -343 180 0 7 825 949
843 962 13 9 237 -109 237 -125 0 -5 -87 -138 -193 -296 -107 -159 -197 -293
-200 -299 -5 -8 87 -65 253 -159 144 -81 262 -146 264 -144 1 2 19 30 40 61
47 72 202 221 295 282 160 107 352 191 546 240 421 105 841 147 1141 112 299
-35 620 -140 816 -268 251 -164 632 -536 933 -910 50 -62 71 -82 73 -69 3 16
-30 514 -118 1814 -32 469 -42 535 -105 723 -82 245 -184 383 -343 462 -195
97 -548 181 -974 233 l-96 11 -11 62 c-5 33 -33 204 -62 379 l-52 318 86 177
c99 207 153 346 173 450 19 100 18 421 -1 582 -26 212 -82 402 -150 509 -101
160 -361 307 -633 356 -85 16 -356 27 -437 19z"/>
<path d="M1488 9740 c-121 -16 -398 -67 -406 -75 -5 -5 20 -280 26 -286 4 -4
133 -37 287 -74 154 -37 304 -73 334 -80 101 -26 287 -177 279 -227 -2 -14
-22 -32 -63 -53 l-60 -32 -220 48 c-121 26 -300 65 -397 87 l-177 39 -84 -86
c-106 -110 -131 -145 -144 -203 l-10 -48 51 0 c65 0 231 -56 432 -144 115 -51
164 -78 206 -116 77 -69 82 -85 75 -248 -8 -179 -30 -262 -117 -439 -38 -78
-79 -165 -90 -193 -18 -45 -73 -290 -67 -296 3 -3 867 375 907 396 70 37 308
226 396 314 155 156 204 269 204 470 0 332 -180 712 -483 1018 -128 129 -255
208 -376 234 -91 19 -334 16 -503 -6z"/>
<path d="M2740 7580 c-352 -36 -689 -136 -1020 -301 -307 -154 -559 -337 -805
-583 -262 -264 -484 -590 -595 -876 -12 -30 -41 -95 -64 -145 -64 -133 -110
-262 -150 -425 -75 -303 -99 -525 -99 -900 0 -505 60 -881 206 -1300 150 -431
334 -794 573 -1131 207 -292 573 -688 802 -870 308 -245 776 -476 1272 -628
495 -151 1030 -249 1645 -301 280 -23 659 -7 1072 45 415 53 763 117 1488 275
154 34 327 70 384 80 119 23 168 47 306 150 86 65 351 297 407 356 l27 29
-106 90 c-232 197 -500 484 -610 652 -86 132 -118 222 -167 464 -91 449 -71
880 54 1156 17 37 27 70 23 73 -53 47 -678 390 -710 390 -5 0 -37 -48 -72
-107 -151 -252 -351 -538 -519 -738 -109 -129 -340 -357 -462 -455 -334 -267
-677 -425 -1065 -491 -184 -32 -499 -32 -700 -1 -280 43 -597 138 -819 245
-522 252 -993 675 -1250 1123 -144 252 -264 628 -301 940 -44 380 19 706 206
1063 223 426 680 760 1175 860 226 46 510 52 736 17 241 -38 532 -257 645
-488 89 -179 82 -376 -19 -571 -59 -114 -199 -254 -314 -315 -201 -105 -418
-110 -614 -15 -61 30 -96 58 -185 148 -159 158 -284 362 -355 573 -43 132 -45
162 -17 275 14 53 23 97 20 97 -3 0 -173 -130 -378 -290 -240 -187 -375 -298
-379 -312 -12 -45 -6 -178 14 -289 61 -353 221 -766 401 -1034 86 -129 234
-287 328 -349 319 -211 486 -288 756 -348 88 -20 129 -22 335 -22 207 0 247 2
339 22 384 84 697 256 961 528 300 309 485 692 550 1137 61 416 18 754 -140
1085 -180 378 -537 732 -1020 1014 -329 193 -687 316 -1095 380 -147 22 -548
33 -695 18z"/>
<path d="M10090 3570 c0 -131 -21 -793 -30 -985 -30 -599 -78 -1076 -134
-1325 -16 -68 -98 -302 -235 -669 -116 -311 -209 -566 -208 -568 2 -2 361 -2
798 -1 l795 3 -52 295 c-63 355 -125 749 -161 1023 -25 192 -27 229 -31 742
-2 297 1 757 8 1023 6 266 10 485 8 487 -2 2 -173 9 -381 17 l-377 13 0 -55z"/>
<path d="M11064 3103 c-5 -98 -9 -468 -9 -823 0 -715 1 -733 71 -1105 40 -218
144 -691 206 -940 l43 -170 175 -7 c609 -26 1165 -46 1169 -43 2 2 -77 134
-177 292 -350 560 -629 1027 -711 1192 l-32 63 -11 707 c-7 493 -14 710 -22
718 -9 10 -631 277 -677 290 -15 4 -18 -15 -25 -174z"/>
<path d="M9444 3019 l-362 -161 -6 -72 c-13 -137 -57 -463 -91 -663 -58 -348
-132 -630 -200 -762 -64 -127 -204 -317 -394 -536 -123 -140 -546 -570 -690
-700 -55 -49 -98 -91 -97 -93 2 -1 205 -7 452 -12 247 -5 573 -12 724 -15
l275 -6 49 88 c210 377 398 787 506 1098 91 265 145 632 180 1230 11 191 25
765 19 765 -2 0 -167 -73 -365 -161z"/>
</g>
</svg>
