<?xml version="1.0" standalone="no"?>
<!DOCTYPE svg PUBLIC "-//W3C//DTD SVG 20010904//EN"
 "http://www.w3.org/TR/2001/REC-SVG-20010904/DTD/svg10.dtd">
<svg version="1.0" xmlns="http://www.w3.org/2000/svg"
 width="1280.000000pt" height="1065.000000pt" viewBox="0 0 1280.000000 1065.000000"
 preserveAspectRatio="xMidYMid meet">
<metadata>
Created by potrace 1.15, written by Peter Selinger 2001-2017
</metadata>
<g transform="translate(0.000000,1065.000000) scale(0.100000,-0.100000)"
fill="#000000" stroke="none">
<path d="M9712 10640 c-207 -26 -438 -112 -650 -241 -188 -115 -373 -297 -494
-485 -66 -103 -163 -329 -191 -445 -11 -45 43 -72 228 -113 185 -40 418 -86
440 -86 8 0 18 12 21 28 48 197 428 481 735 548 96 21 281 21 375 0 225 -49
475 -182 637 -339 199 -193 339 -472 414 -826 25 -118 27 -142 27 -391 1 -286
-10 -405 -64 -726 -31 -182 -75 -395 -90 -430 -4 -12 -22 -31 -39 -43 l-30
-22 -106 210 c-251 495 -487 862 -680 1056 -189 191 -624 438 -993 566 -378
130 -669 181 -1037 181 -562 0 -997 -135 -1368 -426 -93 -72 -251 -230 -328
-326 -176 -220 -349 -547 -442 -835 -158 -489 -115 -1010 123 -1500 129 -265
212 -369 614 -770 250 -249 639 -614 681 -637 9 -6 123 105 363 353 l350 361
-76 66 c-262 226 -620 574 -742 722 -85 103 -188 265 -245 385 -95 199 -131
349 -123 515 6 114 26 175 114 359 189 395 408 588 749 661 127 28 455 39 602
20 333 -41 666 -160 923 -332 177 -118 242 -202 304 -393 32 -97 71 -301 85
-449 19 -187 30 -165 -112 -209 -161 -51 -426 -156 -557 -222 -320 -161 -515
-369 -757 -810 -75 -136 -165 -333 -158 -344 3 -5 128 -108 278 -229 361 -290
519 -382 705 -413 81 -13 161 0 280 47 180 72 305 213 343 389 15 69 16 296 1
368 -5 26 -6 50 -2 52 13 8 231 48 235 43 6 -5 29 -133 47 -253 7 -50 13 -178
13 -290 0 -182 -2 -205 -22 -252 -82 -202 -370 -490 -594 -596 -136 -63 -238
-82 -454 -81 -238 2 -491 41 -713 111 -96 30 -428 194 -652 323 -80 46 -150
83 -155 83 -6 0 -432 -186 -948 -413 l-939 -413 -211 51 c-579 140 -1198 259
-1607 307 -526 62 -1134 -4 -1477 -160 -285 -131 -584 -481 -952 -1118 -119
-207 -318 -587 -421 -807 l-83 -175 -380 -285 c-209 -157 -385 -294 -392 -305
-8 -11 -27 -76 -44 -145 -103 -413 -92 -673 31 -733 80 -39 168 12 346 199
112 117 134 135 378 300 l259 175 80 -163 c44 -90 160 -326 257 -525 l177
-363 5183 0 5184 0 120 29 c282 69 514 172 618 274 48 47 67 75 81 116 42 128
-18 289 -187 500 -86 108 -336 360 -364 367 -11 3 -121 -9 -243 -27 l-223 -32
-854 189 c-470 103 -859 191 -864 194 -6 4 68 179 173 411 l182 405 -22 525
c-13 288 -22 540 -20 560 2 33 16 48 192 198 163 141 190 161 197 145 8 -18
217 -904 276 -1169 l26 -120 235 -350 c128 -192 238 -354 243 -360 10 -10 398
183 398 198 0 5 -45 154 -100 332 -55 178 -100 326 -100 328 0 2 102 69 226
148 124 79 229 151 234 159 4 8 57 176 118 372 l111 357 11 338 c6 186 16 462
21 613 6 151 13 700 16 1220 l4 945 -145 200 -145 200 -5 405 c-11 814 -67
1258 -202 1602 -158 401 -418 730 -756 957 -269 180 -698 343 -1045 396 -123
19 -365 27 -461 15z"/>
<path d="M8254 7763 c-126 -3 -132 -4 -138 -26 -16 -61 14 -164 104 -354 67
-140 115 -207 227 -314 230 -219 438 -288 840 -277 89 2 165 7 169 10 4 5 -14
248 -20 255 0 1 -30 -5 -66 -14 -130 -30 -249 -1 -341 84 -147 137 -230 336
-230 556 l0 87 -207 -2 c-114 -1 -266 -4 -338 -5z"/>
</g>
</svg>
