<?xml version="1.0" standalone="no"?>
<!DOCTYPE svg PUBLIC "-//W3C//DTD SVG 20010904//EN"
 "http://www.w3.org/TR/2001/REC-SVG-20010904/DTD/svg10.dtd">
<svg version="1.0" xmlns="http://www.w3.org/2000/svg"
 width="1280.000000pt" height="1016.000000pt" viewBox="0 0 1280.000000 1016.000000"
 preserveAspectRatio="xMidYMid meet">
<metadata>
Created by potrace 1.15, written by Peter Selinger 2001-2017
</metadata>
<g transform="translate(0.000000,1016.000000) scale(0.100000,-0.100000)"
fill="#000000" stroke="none">
<path d="M6485 10150 c-186 -19 -304 -52 -329 -92 -7 -11 -7 -26 -1 -45 8 -21
29 -38 92 -69 100 -51 217 -83 623 -173 629 -140 787 -198 1083 -393 100 -67
117 -81 117 -104 0 -15 15 -52 34 -83 45 -76 88 -161 80 -161 -18 0 -300 93
-545 181 -648 230 -859 288 -1007 276 -58 -4 -70 -9 -94 -36 -32 -36 -35 -63
-11 -123 41 -106 212 -326 314 -405 120 -94 186 -122 607 -265 228 -77 334
-118 351 -134 13 -13 98 -67 190 -119 197 -114 310 -193 447 -313 161 -143
258 -267 464 -594 85 -135 246 -298 385 -390 179 -119 420 -220 667 -280 54
-12 98 -27 98 -32 0 -21 -117 -179 -200 -271 -139 -152 -201 -294 -218 -500
l-7 -80 -60 -8 c-33 -4 -131 -19 -219 -33 l-158 -25 -55 33 c-31 18 -78 58
-106 90 -81 91 -116 98 -192 38 -27 -22 -57 -40 -66 -40 -29 0 -42 27 -35 70
3 22 9 57 12 78 12 73 -11 120 -100 207 -142 140 -353 239 -436 205 -33 -14
-47 -39 -60 -109 -6 -30 -12 -56 -14 -59 -13 -12 -25 15 -36 75 -23 136 -73
205 -185 257 -53 25 -137 46 -184 46 -45 0 -128 -29 -160 -56 -17 -14 -35 -23
-40 -20 -5 3 -19 39 -31 78 -25 82 -35 98 -60 98 -28 0 -39 -21 -55 -105 -8
-43 -21 -88 -29 -100 -31 -47 -200 -37 -256 15 -26 24 -30 35 -30 79 0 96 68
201 281 430 116 126 148 171 120 171 -5 0 -85 -79 -178 -176 -197 -206 -317
-315 -391 -351 -61 -30 -77 -23 -88 36 -8 43 -20 69 -47 98 -43 48 8 78 166
98 144 19 184 31 198 57 10 19 8 25 -15 45 -23 20 -38 23 -105 23 -45 0 -111
-8 -156 -20 -104 -27 -271 -111 -340 -171 -67 -58 -103 -64 -138 -22 -70 86
-108 104 -115 55 -3 -17 -10 -22 -31 -22 -32 0 -167 64 -317 150 -240 139
-315 157 -201 49 l52 -50 -60 6 c-33 3 -77 8 -97 12 -46 7 -51 -10 -9 -31 15
-8 102 -33 192 -56 90 -22 193 -50 229 -62 69 -22 140 -57 140 -69 0 -4 -24
-10 -52 -14 -77 -9 -150 -48 -183 -95 -34 -49 -55 -56 -100 -34 -80 38 -188
164 -399 465 -143 205 -168 235 -185 224 -19 -11 21 -72 223 -343 203 -272
263 -364 273 -415 l6 -30 -52 29 c-99 56 -156 99 -200 154 -78 97 -102 87 -83
-34 6 -39 8 -73 6 -76 -3 -3 -27 18 -52 47 -45 50 -57 57 -94 54 -22 -1 -51
-58 -68 -131 -7 -30 -17 -63 -22 -73 -9 -17 -11 -17 -27 -3 -28 26 -103 54
-161 61 -71 9 -158 -7 -236 -44 -76 -36 -106 -75 -112 -148 -3 -29 -8 -56 -12
-58 -5 -3 -37 2 -71 11 -143 37 -275 -16 -447 -180 -80 -76 -180 -193 -204
-240 -10 -18 -18 -25 -22 -17 -11 17 -55 13 -86 -9 -51 -36 -71 -80 -104 -233
l-6 -27 -43 21 c-66 34 -203 69 -300 76 -76 5 -87 8 -80 22 4 9 8 50 8 91 -1
62 -6 84 -29 128 -59 115 -161 189 -298 218 -85 18 -172 13 -297 -16 -46 -11
-86 -19 -88 -16 -4 4 178 226 255 311 25 28 141 152 258 276 344 366 508 561
569 674 30 58 31 80 5 123 -42 69 -17 167 86 342 114 193 286 332 614 496 167
83 324 147 675 274 447 163 517 215 387 288 -113 63 -493 121 -796 122 l-101
1 40 24 c61 38 196 83 299 101 133 23 392 15 596 -20 85 -14 169 -29 186 -31
20 -4 35 0 43 9 9 11 5 19 -20 40 -43 37 -68 48 -189 89 -214 73 -437 108
-692 108 -283 0 -467 -36 -664 -130 -107 -51 -151 -79 -360 -227 -109 -78
-147 -99 -233 -129 -124 -43 -276 -110 -368 -162 -37 -21 -80 -45 -95 -53 -95
-54 -468 -394 -627 -573 -261 -294 -371 -483 -544 -938 -277 -726 -291 -789
-221 -975 l35 -95 -35 -41 c-60 -70 -81 -136 -80 -258 0 -327 170 -698 444
-970 219 -218 500 -383 786 -460 94 -26 249 -37 293 -22 30 11 32 9 66 -42 49
-75 159 -176 236 -219 146 -82 447 -157 627 -157 69 0 87 -3 98 -17 7 -10 14
-21 14 -24 0 -4 -46 -9 -102 -11 -57 -3 -234 -14 -395 -24 -250 -15 -310 -16
-417 -6 -123 13 -228 39 -275 69 -23 15 -26 14 -43 -7 l-18 -23 -138 48 c-75
26 -193 72 -262 102 -214 93 -269 114 -320 120 -48 5 -53 9 -107 77 -70 87
-364 388 -493 504 -52 47 -118 96 -146 108 -50 24 -51 25 -99 136 -95 222
-172 363 -279 510 -21 30 -40 73 -51 120 -21 88 -40 128 -61 128 -20 0 -30
-32 -48 -152 -9 -57 -20 -128 -26 -157 -15 -79 -12 -180 6 -242 32 -107 113
-246 214 -368 37 -44 46 -61 35 -65 -25 -9 -19 -99 9 -154 34 -66 140 -185
300 -336 178 -168 292 -265 391 -334 44 -30 100 -76 125 -101 72 -74 295 -192
470 -249 130 -43 359 -94 480 -108 39 -4 76 -15 92 -27 22 -17 36 -19 100 -13
40 3 273 10 518 15 442 9 624 19 794 46 l88 14 66 -50 c36 -27 68 -49 73 -49
4 0 2 -14 -4 -30 -7 -19 -17 -28 -25 -25 -11 4 -13 -1 -8 -18 6 -24 5 -24
-101 -30 -337 -21 -888 5 -1459 68 -122 14 -231 25 -243 25 -39 0 -21 -17 42
-40 34 -12 66 -26 70 -30 4 -4 -50 -10 -120 -13 -336 -18 -739 -87 -835 -144
-25 -15 -33 -26 -31 -45 1 -24 -1 -25 -70 -31 -40 -4 -160 -16 -267 -28 -107
-11 -274 -25 -370 -29 -276 -13 -486 -29 -610 -45 -136 -19 -357 -54 -383 -61
-30 -9 -14 -28 39 -46 l49 -18 -115 6 c-116 6 -190 -1 -190 -17 0 -53 462
-136 830 -149 175 -6 229 -12 290 -30 68 -19 91 -21 245 -17 148 5 213 13 500
62 225 38 366 58 443 60 139 5 188 17 410 104 178 69 209 81 226 81 5 0 10
-16 12 -36 2 -21 13 -47 24 -59 l21 -22 -31 -13 c-61 -25 -101 -105 -69 -137
7 -7 -30 -23 -128 -55 -242 -79 -516 -187 -815 -323 -97 -43 -128 -62 -128
-76 0 -13 10 -20 37 -24 95 -16 94 -17 -73 -85 -201 -80 -246 -102 -293 -145
-43 -40 -91 -123 -117 -208 -18 -57 -20 -59 -79 -86 -100 -46 -195 -159 -284
-337 -70 -141 -107 -290 -74 -301 7 -3 84 67 170 154 87 88 183 176 214 197
36 24 108 55 200 85 342 114 557 229 708 378 49 49 81 73 97 73 33 0 180 48
239 78 74 37 128 76 219 159 104 96 144 117 211 111 28 -2 72 -15 98 -27 66
-32 116 -37 170 -16 73 28 73 13 0 -40 -202 -146 -498 -408 -528 -466 -19 -36
-3 -49 58 -49 l49 0 -57 -62 c-255 -276 -323 -464 -234 -652 l22 -47 -23 -70
c-46 -146 -70 -394 -51 -519 28 -183 251 -520 343 -520 25 0 22 27 -6 61 -31
37 -50 126 -41 195 4 38 18 70 46 112 55 82 66 172 49 412 -6 96 -13 178 -16
181 -2 3 19 16 46 29 117 55 221 148 276 246 62 110 134 340 150 476 l7 56 41
6 c23 4 56 15 74 26 29 18 32 25 32 67 0 43 4 51 48 92 28 27 93 70 158 103
97 50 113 56 124 43 24 -29 75 -14 325 100 358 163 562 214 857 215 58 1 119
7 139 14 50 17 208 138 297 226 93 92 133 152 139 204 l5 42 67 -23 c56 -20
78 -22 144 -17 83 7 110 0 179 -43 51 -32 94 -29 177 11 54 26 95 37 172 46
154 19 217 5 308 -71 20 -16 41 -29 47 -29 7 0 48 18 91 40 l78 40 148 -6 148
-7 56 -80 c69 -99 201 -231 277 -276 96 -57 187 -77 431 -96 356 -26 461 -53
769 -198 121 -56 161 -70 212 -75 48 -3 69 -1 88 12 14 9 32 16 40 16 31 0 86
-64 147 -168 34 -59 76 -123 94 -142 18 -19 47 -71 65 -115 49 -123 153 -318
235 -440 92 -139 199 -244 279 -274 31 -11 61 -21 67 -21 5 0 7 -10 5 -22 -3
-13 -12 -55 -21 -95 -20 -95 -19 -163 5 -308 11 -66 25 -214 31 -329 6 -116
12 -213 15 -218 11 -18 38 12 109 121 41 65 97 143 125 175 56 64 66 92 81
237 23 225 -30 613 -107 777 -14 31 -32 83 -40 115 -19 80 -79 237 -125 328
-35 71 -37 77 -21 93 15 15 15 19 -3 53 -41 78 -279 291 -537 481 -54 40 -98
73 -98 75 0 6 236 -32 263 -42 40 -15 75 -14 84 4 7 12 36 16 124 20 113 5
115 5 159 -23 25 -16 103 -82 175 -147 186 -170 248 -203 296 -159 16 14 23
11 91 -39 40 -30 161 -116 268 -192 333 -236 483 -320 553 -312 28 4 40 1 44
-9 3 -8 24 -24 47 -36 22 -11 118 -96 212 -189 209 -206 228 -215 154 -70 -22
43 -40 81 -40 85 0 4 14 -1 30 -9 17 -9 35 -13 40 -10 31 19 -148 292 -316
481 -69 78 -73 84 -54 94 11 6 20 17 20 24 0 12 -444 312 -573 387 -40 23 -63
44 -72 66 -36 85 -327 253 -607 349 -113 39 -303 90 -370 100 -50 7 -56 12
-36 32 6 6 14 33 18 59 6 37 4 52 -8 66 -14 16 -14 18 1 30 9 6 21 25 27 40
10 27 13 28 53 22 66 -10 161 -43 302 -105 184 -82 287 -98 335 -55 15 14 24
14 81 1 62 -15 599 -86 804 -108 126 -13 276 -6 307 14 16 11 40 14 80 10 168
-14 679 59 728 103 12 11 44 15 123 15 82 0 107 3 107 13 0 13 -148 43 -305
64 -63 8 -35 21 48 22 88 1 68 23 -34 38 -214 32 -348 45 -525 50 -184 6 -190
6 -190 27 1 13 -9 25 -29 35 -26 12 -56 13 -211 3 -225 -14 -362 -4 -574 43
-235 52 -254 58 -322 103 -107 69 -124 74 -256 67 -90 -6 -152 -2 -272 13 -85
11 -185 24 -222 27 -67 6 -67 7 -53 28 38 59 -67 85 -199 51 -37 -10 -113 -17
-196 -19 -96 -2 -174 -10 -270 -29 -307 -60 -322 -61 -533 -48 -105 6 -241 19
-300 27 -96 13 -111 18 -131 42 -23 27 -27 27 -117 26 -52 -1 -139 -11 -193
-22 -55 -11 -102 -18 -105 -15 -4 4 5 14 19 23 48 32 190 137 248 183 l59 47
59 -45 c140 -105 228 -127 421 -101 269 35 416 32 861 -19 228 -26 342 -30
373 -14 13 8 19 21 19 48 l0 37 83 3 c121 5 326 38 415 68 261 87 749 430
1067 749 157 157 229 235 243 262 7 12 12 55 12 96 0 96 24 143 100 195 64 44
80 79 126 272 36 151 38 260 6 311 -14 24 -26 65 -32 120 -15 124 -30 192 -46
214 -24 33 -30 5 -32 -142 0 -75 -5 -140 -11 -146 -6 -6 -18 3 -33 27 -43 67
-59 43 -45 -68 6 -42 5 -77 0 -90 -9 -19 -12 -17 -31 27 -11 26 -25 47 -31 47
-24 0 -29 -37 -15 -115 7 -44 14 -90 14 -102 0 -20 -2 -20 -30 8 -25 25 -33
28 -50 19 -29 -16 -44 -50 -85 -200 -21 -74 -40 -143 -42 -153 -3 -10 -20 -24
-38 -32 -68 -28 -349 -251 -455 -361 -116 -120 -223 -258 -270 -346 l-31 -58
-52 0 c-102 0 -294 -59 -552 -168 -112 -48 -142 -57 -148 -46 -11 19 -37 18
-206 -10 -473 -79 -802 -89 -1086 -32 -71 15 -136 29 -144 32 -10 3 2 22 43
63 l58 58 85 -29 c231 -80 444 -33 703 156 58 42 148 108 200 146 52 38 127
86 167 105 71 36 71 36 139 24 269 -47 755 135 1018 381 123 115 310 326 354
400 27 45 67 142 108 263 36 106 95 260 132 342 l66 150 1 103 c0 56 3 102 8
102 4 0 4 19 1 43 -82 565 -953 1938 -1602 2524 -128 116 -248 205 -350 260
-42 23 -78 47 -78 53 -1 5 -2 14 -3 18 -3 23 -74 51 -351 138 -174 55 -175 56
-235 113 -75 73 -156 134 -287 217 -138 88 -334 184 -374 184 -18 0 -86 21
-151 46 -341 134 -531 181 -878 219 -166 19 -622 27 -750 15z m-1335 -6794 c0
-3 -4 -8 -10 -11 -5 -3 -10 -1 -10 4 0 6 5 11 10 11 6 0 10 -2 10 -4z m2794
-154 l78 -29 -36 -6 c-21 -3 -47 -2 -59 2 -20 8 -77 61 -66 61 3 0 40 -13 83
-28z m887 -98 c196 -13 444 -28 550 -33 107 -5 205 -14 219 -20 36 -16 -673
-4 -855 15 -127 13 -416 58 -440 69 -13 6 90 0 526 -31z m-4928 -5 c191 -17
201 -23 57 -38 -145 -14 -383 -17 -520 -5 l-95 8 80 13 c72 12 238 28 323 32
19 0 88 -4 155 -10z m1477 1 c0 -5 -7 -10 -16 -10 -8 0 -12 5 -9 10 3 6 10 10
16 10 5 0 9 -4 9 -10z"/>
</g>
</svg>
