<?xml version="1.0" standalone="no"?>
<!DOCTYPE svg PUBLIC "-//W3C//DTD SVG 20010904//EN"
 "http://www.w3.org/TR/2001/REC-SVG-20010904/DTD/svg10.dtd">
<svg version="1.0" xmlns="http://www.w3.org/2000/svg"
 width="1280.000000pt" height="1057.000000pt" viewBox="0 0 1280.000000 1057.000000"
 preserveAspectRatio="xMidYMid meet">
<metadata>
Created by potrace 1.15, written by Peter Selinger 2001-2017
</metadata>
<g transform="translate(0.000000,1057.000000) scale(0.100000,-0.100000)"
fill="#000000" stroke="none">
<path d="M5761 10537 c-5 -18 -15 -52 -21 -77 -6 -25 -13 -52 -16 -61 -3 -11
123 -100 478 -336 l483 -321 415 -31 c523 -40 568 -45 759 -82 442 -86 786
-202 955 -323 61 -44 318 -279 324 -297 2 -6 -6 -7 -20 -4 -48 11 -258 44
-393 62 -102 13 -207 18 -385 18 -223 0 -253 -2 -331 -23 -267 -70 -609 -256
-994 -538 -66 -48 -286 -194 -490 -324 l-370 -236 -405 -114 c-223 -62 -427
-120 -454 -128 l-49 -14 7 -97 c4 -53 8 -97 9 -97 1 -1 256 -21 567 -45 l565
-42 933 466 c847 424 937 467 980 466 26 0 160 -12 297 -27 197 -21 250 -30
250 -41 0 -12 -201 -159 -527 -387 -20 -14 -188 -88 -375 -164 l-338 -138 3
-34 c6 -59 72 -521 74 -523 2 -1 154 32 338 75 184 42 336 76 338 75 1 -1 -20
-49 -47 -106 -89 -188 -126 -334 -176 -704 -42 -312 -96 -486 -165 -537 -37
-27 -277 -43 -440 -28 -307 26 -500 95 -915 327 -352 197 -541 280 -769 338
-247 63 -316 70 -671 70 -279 -1 -341 -4 -485 -24 -144 -20 -181 -29 -290 -72
-292 -116 -588 -284 -778 -442 -280 -234 -524 -567 -687 -937 -152 -343 -261
-726 -315 -1100 -54 -373 -64 -521 -64 -925 0 -396 9 -527 59 -821 213 -1259
963 -2082 2009 -2205 158 -19 447 -6 577 24 280 66 514 198 741 416 156 150
248 267 307 392 166 348 185 746 55 1139 -122 371 -418 781 -736 1020 -342
259 -727 410 -1042 410 l-101 0 -58 -432 c-32 -238 -59 -439 -60 -447 -1 -10
42 -29 149 -62 372 -117 516 -189 640 -320 93 -100 131 -194 155 -393 39 -324
-48 -480 -295 -527 -80 -15 -310 -11 -379 7 -273 71 -481 308 -589 674 -120
409 -127 1065 -17 1520 65 268 160 452 300 586 79 75 160 124 264 161 76 26
88 28 250 27 152 0 180 -3 268 -27 218 -60 308 -118 537 -347 269 -268 415
-486 770 -1150 251 -470 352 -635 500 -819 212 -264 473 -438 740 -495 156
-33 431 -58 700 -63 l265 -5 350 81 c595 139 519 127 1100 165 286 18 523 31
526 27 4 -3 9 -34 11 -68 l4 -62 -381 -260 -381 -260 -307 -9 -306 -10 -401
-368 c-221 -203 -398 -370 -393 -371 4 -1 266 -43 581 -93 l572 -90 258 189
c141 104 364 270 496 370 131 100 250 188 265 195 14 7 141 57 281 111 140 54
258 103 262 109 17 25 112 259 149 366 149 432 140 648 -37 825 -171 171 -508
333 -998 480 -48 15 -84 30 -80 34 5 4 256 169 558 366 l549 358 24 -29 c53
-66 385 -507 465 -619 103 -145 221 -326 272 -417 l37 -67 3 -153 c4 -162 15
-237 73 -489 l35 -155 -87 -290 c-48 -159 -93 -308 -100 -332 l-13 -42 311
-292 c172 -161 338 -317 370 -347 31 -30 59 -52 61 -50 3 2 25 353 50 779 l46
775 -84 480 -84 480 -72 160 c-106 238 -346 718 -450 900 -227 396 -424 647
-566 718 -112 57 -314 33 -578 -69 -150 -58 -481 -227 -692 -353 l-199 -119
-6 381 c-11 608 -29 739 -190 1396 -33 133 -58 245 -55 248 3 3 113 -31 244
-76 l238 -82 154 -310 c85 -170 157 -309 160 -309 3 1 90 33 194 73 l190 72
48 289 49 288 -165 397 -164 396 -12 230 c-20 402 -52 691 -96 863 -47 188
-208 535 -420 907 -197 345 -532 810 -766 1061 -285 306 -796 498 -1618 608
-482 65 -557 67 -1063 27 -211 -17 -245 -17 -299 -5 -65 15 -432 136 -615 202
l-112 41 -10 -32z"/>
<path d="M580 5343 c-52 -63 -103 -125 -113 -138 -18 -24 -18 -25 89 -217 213
-384 432 -846 437 -925 3 -39 -39 -46 -228 -40 -188 7 -529 59 -693 106 -24 7
-34 7 -37 -2 -7 -23 -35 -539 -29 -548 3 -5 12 -9 19 -9 27 0 307 -91 430
-140 171 -67 330 -151 390 -203 l50 -45 -71 -69 c-111 -109 -408 -298 -672
-428 -56 -27 -102 -54 -102 -60 0 -9 160 -496 165 -502 1 -2 66 27 146 63 397
182 743 318 926 365 105 26 453 92 732 139 69 11 126 21 127 23 2 2 20 560 30
954 l7 252 -24 5 c-13 3 -42 8 -64 11 -73 11 -209 56 -280 93 -181 93 -541
531 -977 1187 -88 132 -161 241 -162 241 0 1 -44 -50 -96 -113z"/>
</g>
</svg>
