<?xml version="1.0" standalone="no"?>
<!DOCTYPE svg PUBLIC "-//W3C//DTD SVG 20010904//EN"
 "http://www.w3.org/TR/2001/REC-SVG-20010904/DTD/svg10.dtd">
<svg version="1.0" xmlns="http://www.w3.org/2000/svg"
 width="1280.000000pt" height="1064.000000pt" viewBox="0 0 1280.000000 1064.000000"
 preserveAspectRatio="xMidYMid meet">
<metadata>
Created by potrace 1.15, written by Peter Selinger 2001-2017
</metadata>
<g transform="translate(0.000000,1064.000000) scale(0.100000,-0.100000)"
fill="#000000" stroke="none">
<path d="M9081 10624 c-68 -7 -125 -15 -127 -17 -2 -2 -45 -120 -96 -263 -50
-142 -94 -263 -98 -267 -4 -5 -74 110 -155 255 -82 145 -154 269 -161 277 -10
11 -38 8 -170 -19 -141 -29 -179 -42 -341 -113 -163 -71 -182 -82 -178 -101
10 -43 145 -802 145 -813 0 -7 -17 -3 -42 9 -288 140 -733 348 -738 346 -3 -2
-73 -52 -153 -112 l-147 -110 -87 -150 c-47 -83 -87 -154 -90 -158 -2 -4 151
-173 341 -375 189 -202 343 -369 341 -371 -1 -2 -51 13 -111 32 -60 19 -255
80 -434 136 -179 56 -359 113 -400 126 l-75 24 -136 -137 -135 -138 -39 -188
c-22 -110 -34 -191 -29 -196 5 -4 229 -106 498 -227 429 -192 485 -220 460
-226 -16 -4 -263 -40 -549 -78 -286 -39 -534 -73 -552 -76 l-31 -6 -42 -167
c-39 -159 -77 -445 -61 -462 3 -3 229 -23 501 -43 272 -21 512 -40 534 -44 34
-6 17 -13 -185 -71 -567 -163 -861 -250 -867 -255 -3 -4 -12 -102 -19 -218
l-13 -211 -103 -146 c-57 -80 -173 -245 -258 -366 -131 -187 -175 -241 -294
-361 -306 -308 -666 -533 -1210 -757 -238 -98 -719 -276 -789 -292 -97 -22
-177 -33 -411 -55 -422 -40 -564 -78 -730 -195 -79 -56 -227 -212 -343 -360
-107 -137 -374 -533 -415 -615 -24 -48 -36 -117 -102 -555 -95 -634 -95 -635
-105 -635 -4 0 -29 10 -55 21 l-48 21 7 262 c10 396 39 710 83 881 62 248 297
677 719 1312 l214 321 198 199 c199 199 347 362 478 528 415 524 695 1104 875
1815 59 235 75 393 59 594 -43 521 -317 811 -928 981 -55 16 -65 23 -82 54
-24 48 -40 109 -54 205 l-12 79 -99 39 c-347 135 -671 218 -851 218 -139 0
-288 -60 -519 -211 -130 -84 -315 -221 -315 -232 0 -10 103 -164 214 -317 199
-276 315 -403 403 -441 116 -50 287 -62 482 -33 138 20 166 28 418 114 l211
72 99 -42 c185 -79 302 -169 352 -273 41 -85 53 -155 58 -352 5 -174 4 -199
-17 -290 -148 -652 -595 -1386 -1291 -2120 -186 -197 -721 -951 -975 -1377
-155 -260 -244 -445 -308 -646 -176 -548 -240 -1205 -160 -1637 76 -406 309
-879 732 -1482 l86 -123 325 0 c179 0 1414 -5 2745 -11 1330 -5 2420 -8 2423
-5 8 8 224 619 226 637 0 9 -42 118 -93 242 l-95 226 -940 2 c-517 1 -943 1
-947 0 -16 -2 -6 12 106 152 218 273 340 458 437 662 124 260 195 569 168 730
-30 183 -138 399 -296 593 -79 97 -281 299 -410 409 -99 85 -111 98 -95 108
53 35 250 145 261 145 29 0 288 -237 421 -385 281 -314 430 -581 477 -854 35
-209 -30 -480 -203 -840 -86 -179 -151 -290 -242 -414 -35 -48 -62 -90 -60
-92 5 -6 471 71 772 126 653 120 1162 242 1416 341 205 80 541 262 953 515
120 74 221 133 223 131 2 -3 20 -144 39 -314 l36 -309 10 -880 c6 -484 12
-891 15 -903 l5 -24 832 6 c458 4 873 9 923 12 l90 6 64 290 64 290 -22 86
c-32 126 -94 245 -161 312 -107 106 -206 141 -516 185 -99 14 -203 30 -232 36
-49 10 -52 12 -48 37 3 15 19 135 35 267 17 132 46 353 65 491 l35 252 150
442 c82 244 151 444 152 445 2 1 98 -33 213 -77 116 -43 316 -117 445 -164
129 -48 294 -108 365 -135 72 -26 227 -83 345 -127 l215 -80 -4 -303 -3 -304
37 -93 c45 -111 115 -222 175 -276 124 -111 271 -130 499 -64 126 37 210 132
292 332 58 140 102 318 96 386 -6 61 -107 366 -247 745 -51 138 -97 265 -103
284 -7 20 -25 42 -47 55 -19 13 -399 226 -845 476 -445 249 -816 458 -823 465
-11 9 5 45 82 186 l95 174 -39 475 c-21 261 -36 477 -34 479 2 2 34 -23 71
-56 37 -32 159 -139 271 -237 l203 -178 57 54 c31 29 98 92 149 139 l92 85
-95 440 c-52 241 -101 467 -108 502 -11 47 -11 64 -3 67 7 2 185 24 396 49
211 25 385 47 386 48 7 7 165 378 165 385 0 5 -51 21 -114 37 -63 15 -121 33
-129 39 -8 7 -40 100 -72 207 -31 107 -60 201 -64 208 -5 8 -39 -45 -91 -143
-46 -86 -89 -163 -95 -171 -9 -13 -59 -3 -380 77 -204 50 -373 95 -378 98 -4
4 99 86 229 182 l235 174 319 41 c317 40 319 40 324 20 3 -12 21 -106 41 -211
20 -104 38 -197 41 -205 4 -9 60 93 136 245 l130 260 175 170 175 170 29 230
c16 126 25 232 21 236 -4 4 -119 50 -256 104 -275 107 -226 96 -718 161 -152
20 -218 33 -218 41 0 7 36 163 80 346 44 184 80 336 80 340 0 4 -185 171 -411
372 l-410 366 -37 -30 c-20 -17 -104 -89 -187 -160 -82 -72 -152 -126 -153
-120 -2 5 8 97 23 205 15 109 23 200 19 204 -9 9 -474 180 -490 180 -5 1 -100
-93 -211 -207 -163 -167 -205 -205 -213 -193 -5 8 -42 108 -81 223 -60 172
-75 208 -93 212 -40 9 -260 35 -286 34 -14 -1 -81 -8 -149 -15z"/>
</g>
</svg>
