<?xml version="1.0" standalone="no"?>
<!DOCTYPE svg PUBLIC "-//W3C//DTD SVG 20010904//EN"
 "http://www.w3.org/TR/2001/REC-SVG-20010904/DTD/svg10.dtd">
<svg version="1.0" xmlns="http://www.w3.org/2000/svg"
 width="1280.000000pt" height="1048.000000pt" viewBox="0 0 1280.000000 1048.000000"
 preserveAspectRatio="xMidYMid meet">
<metadata>
Created by potrace 1.15, written by Peter Selinger 2001-2017
</metadata>
<g transform="translate(0.000000,1048.000000) scale(0.100000,-0.100000)"
fill="#000000" stroke="none">
<path d="M6285 10474 c-301 -49 -564 -256 -722 -568 -255 -506 -184 -1147 175
-1562 34 -39 59 -74 56 -77 -4 -3 -1 -102 5 -219 6 -117 29 -566 51 -998 22
-432 44 -870 50 -975 5 -104 23 -458 40 -785 17 -327 48 -944 70 -1370 21
-426 55 -1101 75 -1500 20 -399 38 -731 41 -738 3 -10 61 -12 266 -10 l263 3
7 130 c3 72 11 218 17 325 6 107 34 614 61 1125 69 1285 161 2994 220 4090 31
575 46 921 40 923 -5 2 17 34 49 72 204 237 313 520 328 850 27 593 -300 1129
-767 1260 -74 21 -259 34 -325 24z m315 -283 c250 -86 453 -327 538 -639 24
-90 26 -112 26 -297 0 -185 -2 -207 -26 -297 -92 -337 -322 -591 -593 -653
-419 -97 -821 234 -911 750 -22 125 -14 368 15 480 91 345 303 588 581 667 92
26 279 20 370 -11z"/>
<path d="M7420 9840 c0 -5 14 -44 30 -87 70 -180 101 -347 101 -536 0 -208
-39 -384 -130 -587 -46 -102 -48 -110 -28 -105 200 41 631 70 846 55 216 -14
300 -34 596 -137 110 -39 608 -235 728 -287 20 -9 37 -14 37 -11 0 2 33 132
74 287 41 156 78 295 81 310 6 25 0 30 -137 111 -366 216 -785 445 -958 522
-281 126 -1240 486 -1240 465z"/>
<path d="M5160 9764 c-822 -300 -1088 -414 -1534 -663 -165 -93 -571 -326
-585 -338 -5 -3 151 -599 160 -615 5 -7 83 20 215 75 405 166 691 269 869 313
209 51 588 55 930 9 61 -8 134 -18 163 -21 l52 -7 -49 104 c-90 188 -132 379
-132 594 1 183 28 331 96 519 19 53 35 99 35 101 0 9 -15 4 -220 -71z"/>
<path d="M12056 9808 c-56 -10 -169 -60 -254 -112 l-57 -35 -29 -123 c-65
-284 -147 -530 -202 -610 -39 -56 -163 -146 -285 -206 l-104 -52 24 -310 c23
-280 27 -310 43 -310 33 0 283 68 383 105 203 73 310 138 383 230 93 120 199
333 314 635 l39 104 1 186 c0 399 -68 532 -256 498z"/>
<path d="M625 9796 c-99 -43 -137 -182 -137 -498 l0 -188 67 -167 c131 -329
246 -537 343 -624 99 -89 299 -175 570 -245 73 -19 139 -34 145 -34 10 0 19
74 35 283 12 155 22 296 22 312 0 28 -6 34 -87 74 -182 90 -293 183 -337 284
-38 84 -94 268 -146 472 -54 216 -42 198 -194 275 -129 65 -219 83 -281 56z"/>
<path d="M2290 8934 c-243 -52 -443 -292 -496 -596 -68 -387 125 -789 431
-900 83 -30 222 -36 301 -13 257 74 449 331 485 650 46 415 -197 812 -531 865
-82 13 -109 12 -190 -6z m275 -220 c131 -63 245 -223 281 -394 23 -107 14
-261 -19 -358 -126 -366 -478 -475 -724 -226 -108 110 -166 265 -166 444 0
169 58 324 160 431 102 108 180 141 318 136 75 -3 100 -9 150 -33z"/>
<path d="M10267 8935 c-97 -27 -159 -66 -247 -154 -100 -101 -141 -167 -186
-299 -133 -393 18 -849 336 -1012 68 -35 152 -53 240 -52 181 1 352 102 469
277 289 433 113 1097 -328 1235 -74 23 -209 26 -284 5z m307 -218 c177 -88
289 -294 289 -532 0 -118 -18 -200 -68 -302 -145 -296 -470 -363 -687 -142
-69 71 -132 192 -154 299 -44 207 18 446 150 583 95 99 190 139 318 134 65 -3
89 -9 152 -40z"/>
<path d="M9740 7418 c0 -3 -38 -115 -84 -249 -46 -134 -180 -521 -296 -859
-116 -338 -305 -887 -420 -1220 -273 -793 -703 -2042 -824 -2394 -53 -153 -95
-280 -93 -282 5 -5 281 -114 282 -111 1 1 86 245 188 542 102 297 279 810 392
1140 114 330 323 938 465 1350 406 1181 668 1939 675 1956 4 12 -22 26 -127
68 -73 29 -139 55 -145 58 -7 3 -13 3 -13 1z"/>
<path d="M2905 7355 c-92 -38 -129 -58 -127 -68 1 -8 40 -125 86 -259 131
-379 479 -1388 766 -2223 228 -662 399 -1160 771 -2239 49 -142 89 -260 89
-262 0 -11 36 1 157 48 117 47 132 55 127 73 -6 19 -305 889 -735 2138 -115
334 -303 880 -418 1215 -193 560 -514 1490 -548 1590 -8 23 -20 42 -26 41 -7
0 -70 -25 -142 -54z"/>
<path d="M10931 7344 c-73 -29 -135 -55 -137 -57 -4 -4 25 -92 566 -1697 305
-906 449 -1331 818 -2430 213 -633 284 -844 288 -848 2 -4 259 94 276 104 4 2
-5 37 -19 77 -14 39 -169 500 -345 1022 -343 1019 -541 1606 -808 2400 -92
275 -241 718 -330 985 -90 267 -165 488 -169 491 -3 3 -66 -18 -140 -47z"/>
<path d="M1725 7377 c-3 -6 -55 -160 -116 -342 -61 -181 -187 -555 -279 -830
-93 -275 -249 -741 -348 -1035 -444 -1319 -824 -2448 -876 -2598 -49 -145 -53
-164 -38 -169 9 -4 73 -28 141 -55 68 -26 125 -47 126 -46 1 2 44 127 94 278
51 151 169 501 262 777 93 277 245 729 338 1005 340 1010 831 2469 905 2687
42 124 73 228 69 232 -7 5 -103 44 -246 98 -21 8 -29 8 -32 -2z"/>
<path d="M2220 4750 l0 -2420 155 0 155 0 -2 2418 -3 2417 -152 3 -153 3 0
-2421z"/>
<path d="M10270 4755 l0 -2415 155 0 155 0 0 2415 0 2415 -155 0 -155 0 0
-2415z"/>
<path d="M11220 1989 c-597 -3 -1577 -7 -2177 -8 l-1093 -1 0 -114 c0 -525
316 -1054 835 -1400 580 -386 1348 -538 2095 -415 900 148 1610 675 1840 1366
50 153 70 265 77 441 l6 142 -249 -2 c-137 -1 -737 -5 -1334 -9z"/>
<path d="M3 1844 c4 -83 15 -192 26 -245 168 -826 978 -1449 2056 -1581 159
-19 566 -16 725 6 241 33 462 86 669 162 137 50 399 182 516 259 539 358 855
880 855 1411 l0 111 -1367 7 c-753 3 -1845 9 -2427 12 l-1059 7 6 -149z"/>
</g>
</svg>
