<?xml version="1.0" standalone="no"?>
<!DOCTYPE svg PUBLIC "-//W3C//DTD SVG 20010904//EN"
 "http://www.w3.org/TR/2001/REC-SVG-20010904/DTD/svg10.dtd">
<svg version="1.0" xmlns="http://www.w3.org/2000/svg"
 width="1280.000000pt" height="1042.000000pt" viewBox="0 0 1280.000000 1042.000000"
 preserveAspectRatio="xMidYMid meet">
<metadata>
Created by potrace 1.15, written by Peter Selinger 2001-2017
</metadata>
<g transform="translate(0.000000,1042.000000) scale(0.100000,-0.100000)"
fill="#000000" stroke="none">
<path d="M4995 10411 c-51 -13 -92 -39 -117 -73 -33 -47 -37 -164 -9 -273 11
-44 88 -262 170 -485 83 -222 147 -407 143 -411 -4 -3 -218 -77 -477 -163
-725 -242 -1181 -410 -1610 -596 -105 -45 -655 -318 -892 -442 -54 -28 -85
-40 -92 -33 -5 6 -105 165 -222 355 -216 352 -289 454 -505 700 -279 319 -491
490 -605 490 -78 0 -305 -71 -620 -195 l-146 -57 -5 -351 -6 -352 145 -212
c99 -145 151 -213 163 -213 10 0 101 16 201 35 101 19 185 33 187 30 2 -2 -47
-76 -108 -165 -69 -99 -110 -166 -106 -176 3 -8 63 -99 134 -202 70 -103 157
-229 191 -280 l63 -92 -27 -88 c-15 -48 -45 -131 -66 -185 -21 -53 -39 -109
-39 -123 0 -57 51 -124 244 -321 49 -51 87 -95 83 -99 -4 -4 -82 5 -173 21
-197 33 -281 36 -318 12 -14 -10 -39 -43 -55 -75 -40 -79 -149 -354 -156 -394
-5 -25 12 -96 69 -288 l75 -255 88 -83 c214 -201 370 -317 458 -342 58 -16
132 -4 210 35 118 60 281 228 421 435 l64 95 141 439 c177 554 263 756 389
914 58 72 96 98 161 106 91 12 516 25 827 26 l302 0 -24 -47 c-42 -85 -107
-244 -143 -353 -26 -78 -37 -129 -40 -198 -6 -88 -4 -95 26 -157 55 -112 163
-180 340 -217 131 -27 412 -22 575 11 138 28 253 64 297 94 127 85 111 310
-50 711 -17 43 -30 81 -28 83 4 3 1498 -146 1628 -163 l45 -5 18 -177 c9 -97
20 -180 24 -183 8 -7 16 -9 480 -100 200 -39 368 -67 372 -63 5 5 38 83 74
174 37 91 70 171 75 178 6 10 62 7 292 -17 156 -17 610 -65 1009 -107 399 -42
727 -78 729 -80 5 -5 29 13 -225 -172 -209 -153 -222 -164 -228 -199 -19 -115
-66 -465 -76 -573 -7 -69 -11 -197 -8 -285 4 -188 19 -235 87 -273 124 -70
451 -38 756 75 202 75 434 223 514 327 117 154 205 597 252 1273 l11 163 -218
225 -219 226 -94 177 c-111 208 -238 484 -276 597 -77 230 -122 631 -132 1173
-6 357 5 619 36 800 9 57 15 104 12 106 -9 4 -370 -21 -556 -39 -626 -60
-1274 -207 -2078 -472 l-237 -78 -508 392 c-561 434 -534 418 -772 479 -100
26 -264 39 -315 25z"/>
<path d="M9699 10154 l-26 -5 -14 -262 c-7 -145 -13 -455 -13 -692 0 -512 17
-759 65 -995 38 -183 185 -436 478 -825 141 -186 349 -445 358 -445 14 0 397
182 643 306 349 175 505 263 725 410 167 111 247 180 299 258 68 102 22 137
-419 316 -126 51 -234 97 -239 102 -6 4 14 8 45 8 225 1 804 21 848 30 30 6
63 18 73 27 10 9 52 68 92 132 l75 116 -58 203 c-33 112 -60 204 -62 206 -2 1
-42 10 -89 20 -266 56 -399 125 -710 371 -244 192 -278 212 -597 356 -558 251
-930 356 -1283 364 -91 2 -177 1 -191 -1z"/>
<path d="M11756 6736 c-155 -58 -330 -273 -500 -614 -35 -70 -197 -424 -361
-787 -164 -363 -303 -665 -309 -672 -6 -7 -202 -93 -436 -192 -383 -161 -438
-182 -550 -204 -260 -53 -498 -79 -735 -80 -209 -1 -198 -2 -1115 164 -96 17
-178 35 -182 38 -4 4 48 160 115 346 139 383 158 450 159 551 0 76 -13 113
-54 151 -84 79 -309 68 -578 -29 -91 -33 -116 -50 -562 -376 l-466 -342 -199
55 c-269 75 -704 187 -895 229 -213 48 -349 70 -638 105 -316 39 -1221 131
-1228 125 -2 -1 1 -166 7 -366 23 -761 5 -1326 -50 -1602 -32 -160 -111 -348
-292 -696 l-112 -215 -219 -224 -218 -225 6 -105 c42 -679 129 -1147 246
-1317 87 -125 345 -283 600 -367 175 -58 314 -82 475 -82 130 0 144 2 190 25
69 34 92 79 105 204 15 150 -11 462 -71 835 l-22 137 -225 164 c-183 133 -222
165 -206 171 10 4 285 35 609 69 325 34 770 81 990 104 220 24 404 39 409 35
5 -5 42 -88 82 -186 46 -114 77 -177 86 -176 30 4 843 165 845 167 1 1 10 81
19 177 9 96 22 179 28 185 6 6 97 30 201 52 348 75 1027 222 1279 277 138 30
252 53 254 50 3 -2 8 -46 13 -97 35 -364 127 -569 278 -624 71 -25 240 -30
341 -10 435 89 826 415 823 688 -1 110 -100 218 -315 348 l-81 48 104 53 c176
88 535 277 714 376 176 98 342 206 648 420 l177 125 298 -238 c163 -131 332
-270 375 -308 107 -97 288 -231 391 -289 173 -99 311 -123 413 -71 62 30 195
166 269 275 l51 74 32 328 c37 382 45 336 -87 496 -168 202 -169 202 -410 54
-68 -41 -125 -73 -128 -70 -3 3 24 79 60 169 67 167 84 235 72 283 -4 14 -77
101 -162 193 -86 92 -158 172 -161 178 -2 6 30 116 72 244 l77 233 -123 123
c-68 68 -121 125 -119 127 3 2 87 33 188 68 l182 64 79 240 79 240 -113 269
-113 270 -63 48 c-139 104 -260 145 -343 114z"/>
<path d="M2625 5150 c-200 -35 -403 -93 -925 -265 -157 -51 -337 -109 -400
-129 -140 -43 -188 -74 -405 -254 -298 -249 -392 -296 -750 -381 -30 -6 -31
-10 -87 -209 l-58 -202 108 -162 c84 -129 115 -167 143 -181 58 -28 205 -36
644 -37 226 -1 419 -5 429 -9 17 -7 12 -13 -40 -48 -177 -120 -460 -223 -617
-223 -85 0 -130 -18 -146 -58 -21 -51 7 -93 114 -172 125 -93 294 -202 455
-295 140 -80 807 -414 965 -482 85 -38 91 -39 105 -22 326 389 632 815 739
1032 85 172 113 324 132 719 17 361 -9 995 -52 1309 l-11 77 -36 6 c-67 11
-205 5 -307 -14z"/>
</g>
</svg>
