<?xml version="1.0" standalone="no"?>
<!DOCTYPE svg PUBLIC "-//W3C//DTD SVG 20010904//EN"
 "http://www.w3.org/TR/2001/REC-SVG-20010904/DTD/svg10.dtd">
<svg version="1.0" xmlns="http://www.w3.org/2000/svg"
 width="1280.000000pt" height="1064.000000pt" viewBox="0 0 1280.000000 1064.000000"
 preserveAspectRatio="xMidYMid meet">
<metadata>
Created by potrace 1.15, written by Peter Selinger 2001-2017
</metadata>
<g transform="translate(0.000000,1064.000000) scale(0.100000,-0.100000)"
fill="#000000" stroke="none">
<path d="M3910 10633 c-349 -56 -594 -144 -820 -294 -128 -85 -325 -281 -409
-408 -144 -217 -228 -438 -278 -726 -24 -143 -24 -525 1 -685 61 -400 110
-505 386 -840 39 -47 88 -120 110 -163 48 -95 135 -359 186 -564 l37 -151 -88
-428 c-81 -394 -90 -431 -114 -452 -39 -34 -267 -184 -341 -224 -80 -45 -222
-104 -281 -118 -24 -5 -103 -14 -174 -19 -295 -21 -545 -102 -717 -231 -199
-150 -299 -424 -334 -919 l-7 -93 -76 -77 c-42 -43 -155 -145 -251 -227 -265
-228 -348 -325 -465 -546 -142 -271 -255 -643 -272 -901 -14 -226 56 -603 155
-827 62 -142 191 -294 300 -353 131 -71 256 -73 682 -11 319 47 838 244 1235
468 418 237 1124 769 1674 1262 79 71 156 139 170 151 22 17 108 37 451 102
316 60 429 85 441 98 9 10 111 129 226 264 l210 246 -89 354 -89 354 -123 123
-122 123 -300 -90 c-164 -49 -324 -97 -355 -105 l-55 -16 -215 -377 -214 -376
-1350 -349 c-742 -191 -1355 -347 -1361 -346 -6 2 26 63 70 137 l81 135 65 22
c36 12 385 138 775 279 391 141 771 279 845 305 404 144 635 231 645 242 7 7
99 157 205 333 106 176 198 326 205 333 9 10 826 187 1003 217 40 6 42 5 261
-159 l220 -166 167 -507 c91 -280 168 -511 170 -514 2 -3 -145 -190 -326 -415
l-329 -410 -491 -139 -490 -140 -491 -431 -491 -431 -411 -229 c-226 -126
-471 -263 -545 -304 -74 -41 -135 -78 -136 -82 0 -4 172 -307 384 -673 l385
-666 670 6 c369 3 1143 10 1720 15 578 6 1179 10 1338 10 l287 0 0 35 c0 33 2
35 35 35 32 0 35 2 35 30 0 17 -4 38 -10 48 -5 9 -69 366 -140 792 -72 426
-156 923 -187 1103 -30 180 -53 330 -50 333 12 12 588 -380 1007 -685 140
-102 478 -352 509 -377 2 -2 -22 -85 -52 -186 -31 -100 -55 -183 -54 -184 13
-9 404 -120 408 -115 3 3 50 128 104 277 l97 272 132 17 c217 28 526 82 663
115 154 38 263 78 465 170 691 316 1201 724 1476 1180 146 243 328 654 518
1175 l73 200 -27 7 c-26 8 -522 68 -555 68 -18 0 -16 6 -72 -235 -46 -196 -94
-368 -142 -500 -51 -145 -170 -384 -251 -506 -151 -227 -451 -497 -842 -759
-282 -189 -517 -309 -750 -385 -165 -54 -537 -149 -745 -190 l-140 -29 -235
175 c-523 389 -1142 818 -1430 989 -69 41 -127 75 -129 77 -4 3 20 37 133 193
l58 81 14 112 c24 199 29 450 10 547 -20 107 -80 305 -149 497 -30 81 -53 149
-53 149 1 1 123 -15 271 -37 798 -113 1419 -153 1795 -114 386 39 1271 211
2155 417 121 28 242 56 270 62 47 11 79 5 600 -111 420 -93 553 -119 561 -110
6 7 40 59 76 117 152 244 247 442 275 572 33 155 -6 442 -114 843 -41 154
-102 347 -113 358 -4 5 -151 -19 -326 -52 -176 -33 -429 -81 -564 -106 -135
-25 -252 -48 -261 -51 -9 -2 -89 -106 -178 -229 l-162 -225 -67 0 c-37 0 -429
7 -872 16 l-805 17 -305 -82 -305 -82 -185 93 c-194 98 -379 175 -558 233
-321 103 -565 128 -1028 105 -145 -7 -266 -11 -269 -9 -2 3 84 115 193 249
281 349 801 1012 1590 2028 l686 882 51 -6 c115 -14 365 -68 461 -99 218 -71
562 -272 899 -525 308 -231 514 -440 629 -639 131 -228 291 -689 396 -1139 16
-68 31 -126 33 -129 5 -4 567 144 576 152 10 10 -194 553 -314 837 -82 191
-214 458 -280 563 -303 483 -848 899 -1595 1218 -234 100 -539 170 -979 225
-132 16 -145 20 -152 40 -5 13 -45 147 -90 300 -45 152 -84 280 -88 283 -3 4
-64 -11 -136 -32 -71 -22 -160 -49 -197 -60 -50 -14 -68 -24 -68 -37 0 -10 27
-136 60 -281 l60 -264 82 -76 c46 -43 101 -93 123 -113 l39 -36 -44 -58 c-236
-313 -1822 -2341 -2142 -2739 l-185 -230 169 -182 170 -183 -94 -118 c-52 -64
-210 -271 -352 -459 -141 -189 -259 -343 -262 -343 -8 0 -339 250 -387 292
l-39 33 154 186 c84 102 252 304 373 448 121 144 221 265 223 270 5 14 -130
69 -198 81 -76 14 -119 10 -334 -31 -235 -44 -391 -99 -513 -180 -25 -16 -34
-18 -37 -7 -10 31 -99 678 -94 683 3 3 174 38 379 77 l374 71 157 126 157 126
-64 123 -65 122 0 283 0 284 218 101 c119 56 217 106 217 111 0 5 -129 162
-287 349 -157 186 -292 348 -299 359 -11 18 -4 51 50 230 l62 209 -52 149
c-111 323 -179 445 -334 600 -93 93 -124 118 -200 157 -191 98 -423 145 -825
168 -169 9 -588 12 -640 3z m2608 -7485 c127 -94 232 -175 232 -181 0 -9 -196
-375 -206 -386 -3 -3 -494 362 -612 455 -2 1 58 79 134 173 l137 170 41 -30
c23 -17 146 -107 274 -201z"/>
</g>
</svg>
