<?xml version="1.0" standalone="no"?>
<!DOCTYPE svg PUBLIC "-//W3C//DTD SVG 20010904//EN"
 "http://www.w3.org/TR/2001/REC-SVG-20010904/DTD/svg10.dtd">
<svg version="1.0" xmlns="http://www.w3.org/2000/svg"
 width="1280.000000pt" height="1056.000000pt" viewBox="0 0 1280.000000 1056.000000"
 preserveAspectRatio="xMidYMid meet">
<metadata>
Created by potrace 1.15, written by Peter Selinger 2001-2017
</metadata>
<g transform="translate(0.000000,1056.000000) scale(0.100000,-0.100000)"
fill="#000000" stroke="none">
<path d="M8445 10553 c-205 -18 -482 -74 -650 -133 -412 -145 -842 -542 -914
-844 -21 -86 -30 -290 -20 -454 9 -163 37 -413 49 -447 6 -18 45 -23 480 -72
l474 -52 120 50 c162 68 462 216 562 278 124 77 220 194 338 412 l47 87 132
-28 c73 -16 290 -60 482 -100 193 -39 553 -113 800 -164 l450 -92 220 89 c121
49 223 92 227 96 4 4 -495 173 -1108 376 l-1116 370 5 38 c3 21 8 41 11 44 4
5 286 -40 1895 -303 255 -41 465 -73 468 -71 2 3 -64 86 -147 184 l-151 180
-237 76 c-1108 355 -1943 521 -2417 480z"/>
<path d="M4754 10402 c-21 -16 -115 -109 -208 -208 -238 -251 -439 -450 -522
-517 -39 -31 -111 -77 -160 -101 -100 -49 -360 -149 -376 -144 -5 2 -24 37
-43 78 -149 339 -388 560 -710 656 -79 24 -107 27 -235 28 -170 0 -227 -12
-367 -79 -123 -60 -229 -142 -364 -283 -193 -202 -340 -416 -487 -712 -88
-176 -133 -299 -211 -575 -68 -240 -95 -357 -85 -371 18 -25 586 -514 592
-510 4 2 293 129 642 281 349 152 682 303 740 336 58 33 260 137 450 230 384
189 477 240 630 343 200 135 320 278 477 571 176 327 383 830 383 931 0 12 -9
33 -21 48 -28 36 -74 35 -125 -2z"/>
<path d="M6895 8323 c7 -38 73 -396 146 -798 73 -401 133 -731 134 -733 1 -1
193 102 427 229 l426 232 -19 56 c-10 31 -79 252 -154 491 -75 239 -139 438
-143 441 -6 6 -803 150 -823 149 -4 0 -1 -30 6 -67z"/>
<path d="M5007 7969 l-139 -111 59 -43 c32 -24 220 -163 418 -310 l360 -266
22 -67 c12 -37 76 -247 143 -467 67 -220 136 -446 153 -502 l32 -102 302 191
302 191 -272 541 -272 541 -475 257 c-261 141 -480 257 -485 258 -6 0 -72 -50
-148 -111z"/>
<path d="M12204 7580 c3 -201 11 -660 16 -1020 5 -360 12 -728 14 -818 l5
-162 -41 -21 c-22 -11 -42 -18 -46 -15 -4 5 -78 302 -212 856 -188 779 -341
1405 -344 1407 -2 2 -46 -118 -98 -266 l-95 -268 78 -884 c43 -486 77 -884 76
-885 -1 -1 -57 -29 -124 -63 -235 -119 -325 -189 -412 -321 -130 -194 -335
-594 -334 -650 0 -19 24 -227 53 -463 50 -403 55 -428 74 -432 112 -26 585
-59 726 -50 238 14 381 64 555 195 145 109 320 294 425 449 183 272 292 787
277 1306 -15 488 -135 1301 -313 2126 -4 19 -229 290 -281 339 -3 3 -3 -159 1
-360z"/>
<path d="M9170 7560 c-355 -198 -649 -361 -655 -363 -9 -3 1312 -1597 1324
-1597 7 1 825 1286 829 1304 2 9 -44 19 -175 35 -98 13 -288 37 -423 55 l-245
31 -5 448 -5 447 -645 -360z"/>
<path d="M807 7836 c-172 -62 -356 -417 -531 -1024 -67 -234 -82 -300 -70
-311 18 -16 936 -433 941 -427 3 3 88 277 190 608 153 503 181 607 172 624
-31 60 -184 250 -268 335 -113 113 -183 162 -270 189 -73 23 -111 24 -164 6z"/>
<path d="M3733 7244 c-59 -75 -109 -139 -111 -144 -2 -4 192 -140 430 -301
553 -374 536 -362 542 -374 2 -5 93 -235 201 -510 108 -275 198 -501 200 -503
5 -5 545 408 545 418 0 4 -129 223 -287 486 l-288 478 -550 292 c-302 161
-555 293 -562 294 -7 0 -61 -61 -120 -136z"/>
<path d="M8045 6948 c-1557 -919 -2433 -1484 -2816 -1816 -192 -166 -501 -492
-765 -807 -271 -323 -658 -830 -829 -1084 -82 -123 -87 -133 -80 -168 8 -45
49 -114 248 -413 435 -654 750 -1014 927 -1064 338 -95 1172 264 2205 949 467
309 665 470 1083 880 416 407 1130 1198 1611 1786 l70 86 -730 874 c-401 481
-735 875 -742 876 -7 1 -88 -44 -182 -99z"/>
<path d="M265 6181 c-140 -37 -206 -160 -247 -461 -26 -192 -8 -1091 22 -1140
8 -13 59 0 863 212 l197 52 0 42 c0 22 -4 97 -10 165 -11 144 -60 810 -60 822
0 14 -213 148 -323 203 -59 30 -142 66 -185 80 -81 26 -206 39 -257 25z"/>
<path d="M2871 5990 c-33 -82 -61 -153 -61 -157 0 -5 184 -111 408 -237 l408
-229 274 -404 c151 -222 280 -409 287 -414 8 -7 69 58 217 236 l206 247 -49
57 c-27 31 -175 195 -328 365 -236 264 -285 313 -323 328 -48 19 -972 358
-975 358 -1 0 -30 -67 -64 -150z"/>
<path d="M2390 4903 c0 -5 -7 -62 -15 -128 -8 -65 -15 -126 -15 -135 0 -10
108 -69 319 -175 l320 -159 222 -396 c122 -217 228 -403 235 -413 10 -16 34
13 198 244 115 163 183 266 177 273 -4 6 -124 163 -265 348 -232 305 -260 338
-294 347 -63 17 -863 201 -873 201 -5 0 -9 -3 -9 -7z"/>
<path d="M9518 4572 c-141 -174 -255 -318 -254 -320 5 -5 1349 -512 1351 -510
4 6 -127 834 -133 839 -10 10 -688 309 -698 309 -5 -1 -125 -144 -266 -318z"/>
<path d="M1022 4559 c-506 -46 -800 -207 -841 -459 -29 -174 66 -469 258 -805
83 -144 250 -397 261 -393 16 6 860 893 860 904 0 6 -80 179 -178 385 l-179
374 -44 1 c-24 1 -86 -2 -137 -7z"/>
<path d="M8675 3439 c-132 -138 -241 -254 -242 -258 -1 -3 229 -132 513 -285
283 -154 518 -284 523 -290 5 -6 104 -216 221 -466 116 -250 215 -458 219
-462 5 -6 224 163 274 211 4 4 -64 243 -152 532 l-159 524 -473 372 c-261 205
-476 373 -479 372 -3 0 -113 -113 -245 -250z"/>
<path d="M1503 3322 c-246 -245 -424 -470 -521 -659 -74 -145 -96 -220 -97
-329 0 -84 2 -95 38 -166 87 -176 308 -352 669 -534 156 -79 360 -165 369
-155 4 3 91 329 194 725 156 599 185 721 173 731 -47 47 -655 535 -665 535 -6
0 -78 -66 -160 -148z"/>
<path d="M2965 3019 c-126 -3 -249 -7 -271 -8 l-41 -1 -61 -182 c-160 -481
-242 -851 -242 -1085 0 -214 52 -301 215 -362 194 -73 570 -80 1035 -20 334
43 753 124 748 144 -2 7 -237 353 -522 769 l-519 756 -56 -2 c-31 -1 -159 -5
-286 -9z"/>
<path d="M7600 2678 c-118 -104 -234 -207 -258 -227 l-43 -37 464 -299 465
-298 227 -541 c126 -298 229 -542 230 -543 1 -2 76 35 167 82 l166 85 -34 113
c-18 61 -100 334 -181 606 l-148 494 -417 379 c-229 208 -418 378 -420 377 -2
0 -100 -86 -218 -191z"/>
<path d="M6680 2138 c-52 -39 -168 -127 -258 -196 l-163 -124 403 -303 403
-302 68 -134 c37 -74 133 -263 212 -421 l145 -287 97 35 c192 68 213 77 213
87 0 5 -72 238 -160 517 l-159 508 -346 343 c-191 189 -350 345 -353 346 -4 2
-50 -30 -102 -69z"/>
<path d="M5480 1471 c-156 -71 -285 -132 -286 -137 -2 -5 158 -147 354 -315
l358 -307 25 -98 c43 -161 149 -543 159 -568 8 -21 17 -23 146 -34 76 -7 139
-10 141 -9 1 2 -4 214 -12 471 l-14 467 -208 236 c-114 130 -244 278 -288 329
-44 51 -82 93 -85 93 -3 0 -133 -58 -290 -128z"/>
</g>
</svg>
