<?xml version="1.0" standalone="no"?>
<!DOCTYPE svg PUBLIC "-//W3C//DTD SVG 20010904//EN"
 "http://www.w3.org/TR/2001/REC-SVG-20010904/DTD/svg10.dtd">
<svg version="1.0" xmlns="http://www.w3.org/2000/svg"
 width="1280.000000pt" height="1069.000000pt" viewBox="0 0 1280.000000 1069.000000"
 preserveAspectRatio="xMidYMid meet">
<metadata>
Created by potrace 1.15, written by Peter Selinger 2001-2017
</metadata>
<g transform="translate(0.000000,1069.000000) scale(0.100000,-0.100000)"
fill="#000000" stroke="none">
<path d="M12333 10667 c-29 -13 -54 -25 -57 -28 -3 -2 6 -72 20 -154 58 -355
77 -526 78 -700 l1 -170 -32 -73 c-40 -91 -126 -223 -182 -280 -82 -83 -337
-254 -520 -347 l-53 -27 -98 65 c-130 87 -183 113 -292 142 -316 85 -639 44
-978 -123 -112 -56 -149 -84 -233 -179 l-37 -43 -152 61 c-446 178 -621 293
-788 519 -66 90 -136 221 -146 276 -3 19 4 250 16 514 12 265 20 487 17 494
-4 11 -115 43 -121 34 -15 -18 -201 -484 -262 -655 -81 -229 -107 -329 -112
-444 -10 -232 46 -439 171 -624 123 -182 345 -422 597 -645 58 -51 106 -96
108 -100 1 -4 -55 -10 -125 -13 -292 -15 -538 -59 -1123 -202 -190 -46 -415
-98 -500 -116 -85 -17 -299 -66 -475 -109 -516 -126 -692 -164 -1025 -217
-298 -47 -477 -34 -1257 97 -533 90 -714 114 -958 131 -534 36 -995 -74 -1375
-329 -213 -143 -609 -510 -805 -745 -121 -146 -245 -330 -304 -452 -108 -220
-195 -552 -321 -1215 -80 -423 -114 -568 -195 -835 -36 -121 -89 -294 -116
-385 -174 -578 -340 -1009 -456 -1183 -26 -40 -92 -127 -146 -195 l-98 -123
26 -452 c14 -249 29 -493 33 -543 l7 -92 334 390 333 389 -12 127 c-7 70 -10
190 -8 267 5 163 -16 99 258 775 377 927 436 1111 595 1835 36 165 72 329 80
363 7 35 16 66 19 70 3 3 27 -1 54 -9 l47 -15 6 -129 c10 -196 32 -311 125
-652 99 -363 127 -558 104 -732 -7 -52 -21 -119 -31 -150 -43 -123 -211 -385
-423 -656 -81 -103 -126 -169 -126 -185 0 -14 -47 -533 -103 -1154 l-103
-1129 90 -303 91 -304 538 0 c361 0 536 3 532 10 -4 6 -134 159 -291 341 -156
183 -284 339 -284 349 0 9 29 111 65 226 216 691 412 1171 560 1368 111 149
314 356 575 587 159 141 341 291 346 286 3 -2 20 -130 40 -283 l35 -279 54
-140 c30 -77 122 -312 204 -522 83 -211 218 -553 300 -760 143 -364 156 -392
355 -768 114 -214 208 -391 209 -392 2 -1 261 -5 577 -9 l575 -6 -113 111
c-67 67 -153 167 -214 249 -56 75 -120 162 -142 192 -53 71 -221 245 -290 300
-50 40 -55 48 -66 104 -16 83 -52 227 -159 641 -99 385 -151 620 -176 795
l-16 115 34 75 c82 179 267 468 446 694 29 37 49 71 44 75 -5 3 -205 127 -444
275 -239 148 -435 270 -437 271 -4 3 91 94 129 124 l27 21 496 -285 497 -285
802 -237 c441 -130 805 -239 810 -243 4 -3 -4 -204 -18 -446 -14 -241 -32
-565 -41 -719 -12 -227 -143 -1507 -180 -1772 l-6 -43 502 0 c473 0 501 1 496
18 -63 223 -206 761 -206 776 0 9 84 341 186 739 l186 722 176 280 c96 154
181 287 189 295 7 8 199 85 426 171 l412 156 5 -671 5 -671 42 -200 c137 -652
195 -975 232 -1285 l37 -315 474 3 c261 2 476 5 478 7 2 1 -75 182 -170 401
l-174 399 -22 590 c-13 325 -22 620 -22 657 0 37 20 213 45 390 240 1743 281
2138 286 2773 1 88 4 192 8 232 l6 72 154 181 c84 100 159 184 166 186 7 3
194 -115 415 -262 222 -147 409 -267 414 -267 13 1 639 292 647 301 3 4 0 70
-7 147 -7 77 -22 246 -33 375 -12 129 -44 487 -71 795 -27 308 -61 693 -76
855 l-26 294 49 46 c26 25 143 133 258 242 272 254 356 356 437 526 81 170
123 446 100 655 -29 262 -108 523 -237 781 -44 87 -160 277 -168 276 -1 -1
-25 -11 -54 -23z"/>
</g>
</svg>
