<?xml version="1.0" standalone="no"?>
<!DOCTYPE svg PUBLIC "-//W3C//DTD SVG 20010904//EN"
 "http://www.w3.org/TR/2001/REC-SVG-20010904/DTD/svg10.dtd">
<svg version="1.0" xmlns="http://www.w3.org/2000/svg"
 width="1280.000000pt" height="1062.000000pt" viewBox="0 0 1280.000000 1062.000000"
 preserveAspectRatio="xMidYMid meet">
<metadata>
Created by potrace 1.15, written by Peter Selinger 2001-2017
</metadata>
<g transform="translate(0.000000,1062.000000) scale(0.100000,-0.100000)"
fill="#000000" stroke="none">
<path d="M10150 10613 c-404 -27 -715 -72 -922 -133 -105 -32 -362 -135 -436
-176 -146 -82 -265 -239 -266 -354 -2 -98 74 -138 334 -176 91 -13 170 -24
176 -24 6 0 15 -75 22 -202 19 -308 18 -326 -19 -381 -42 -64 -124 -137 -246
-218 -56 -38 -107 -78 -113 -88 -26 -50 1 -93 72 -110 173 -43 213 -68 224
-137 9 -62 -17 -193 -61 -302 -19 -47 -32 -89 -28 -93 5 -4 163 -82 352 -173
190 -92 347 -169 350 -172 3 -2 -31 -41 -75 -85 l-80 -80 -90 36 c-275 111
-653 185 -947 185 -263 0 -385 -31 -655 -166 -186 -92 -331 -179 -602 -359
-473 -315 -1073 -783 -1362 -1063 l-117 -113 -133 10 c-515 39 -935 22 -2261
-91 -83 -7 -141 -8 -146 -2 -4 5 -23 47 -41 94 -45 115 -115 252 -144 279 -58
54 -135 39 -170 -33 -10 -21 -29 -102 -43 -179 -24 -146 -37 -203 -51 -224
-22 -34 -298 -51 -537 -34 -162 11 -294 35 -574 105 -297 74 -394 81 -441 31
-20 -22 -22 -31 -18 -89 16 -195 181 -362 456 -460 172 -61 281 -74 875 -106
l552 -29 495 -81 c272 -44 578 -94 680 -110 409 -66 1361 -109 1580 -72 180
31 547 211 805 395 155 111 321 254 737 634 211 192 420 382 464 422 l82 71
16 -35 c71 -148 60 -231 -38 -305 -28 -21 -118 -72 -201 -115 -203 -105 -300
-171 -384 -261 -82 -88 -140 -196 -171 -318 -34 -135 -24 -198 53 -351 75
-150 183 -263 316 -330 l67 -33 -48 -229 c-26 -125 -52 -244 -56 -262 -15 -71
-281 -251 -369 -251 -19 0 -139 29 -267 64 -416 116 -597 146 -871 146 -356 0
-904 -75 -1643 -225 -1161 -235 -2114 -545 -2649 -863 -379 -225 -545 -428
-616 -752 -18 -79 -21 -131 -21 -310 -1 -332 21 -426 194 -830 48 -113 120
-274 159 -359 39 -85 70 -156 68 -157 -1 -1 -56 -18 -122 -39 -436 -135 -1084
-340 -1158 -367 -83 -31 -87 -34 -82 -58 3 -14 14 -85 25 -159 25 -169 35
-202 76 -250 40 -46 108 -77 200 -90 94 -13 1110 -21 1641 -12 l432 6 31 30
c115 110 117 309 7 525 l-48 95 11 67 c28 166 169 351 378 497 40 28 87 118
108 208 29 124 5 245 -66 334 l-29 36 102 12 c993 117 1829 245 2202 337 131
33 207 57 340 112 130 53 272 102 294 102 30 -1 -169 -162 -314 -255 -363
-232 -1282 -557 -2390 -844 -90 -24 -280 -202 -360 -338 -184 -313 -83 -597
265 -744 187 -79 508 -131 1055 -171 224 -16 1069 -16 1330 0 1019 64 1723
174 2162 338 356 133 623 291 969 575 148 122 194 172 265 290 111 186 165
397 219 854 51 436 79 528 234 765 218 333 322 439 649 659 533 360 950 814
1213 1321 l49 94 7 -169 c18 -452 33 -595 102 -964 25 -130 50 -283 57 -341
14 -126 8 -181 -51 -428 -63 -269 -63 -271 -63 -697 0 -380 7 -579 39 -1125 8
-146 16 -296 17 -334 l2 -70 -205 -81 c-327 -130 -512 -233 -601 -333 -90
-103 -130 -241 -94 -323 10 -21 21 -39 24 -39 3 0 201 47 439 106 l432 107
153 -102 153 -101 555 0 556 0 20 23 c42 46 57 89 57 167 0 104 -39 186 -138
285 -111 112 -273 196 -524 271 l-93 28 5 31 c14 72 138 965 170 1220 52 407
66 541 66 625 0 151 -50 395 -137 663 l-45 142 36 170 c132 627 188 1065 191
1493 3 278 3 284 25 307 54 58 243 134 445 180 66 15 125 29 132 30 9 3 7 22
-8 72 -94 322 -214 824 -245 1028 -22 143 -22 377 0 565 9 80 46 316 81 525
89 530 98 603 99 805 1 198 -12 280 -71 465 -112 350 -356 806 -526 983 -150
156 -500 308 -982 427 -215 53 -320 72 -480 85 -110 9 -395 11 -505 3z"/>
<path d="M1710 9682 c-49 -24 -104 -82 -160 -169 -64 -100 -217 -434 -230
-502 -21 -111 -4 -350 35 -478 13 -45 26 -60 94 -117 124 -104 211 -212 211
-263 0 -30 -14 -30 -170 2 -148 30 -185 31 -228 5 -39 -24 -57 -63 -72 -156
-16 -105 -24 -118 -121 -188 -103 -76 -124 -104 -124 -164 0 -36 5 -48 32 -72
43 -38 89 -50 203 -50 52 0 136 -7 185 -16 50 -9 124 -16 165 -17 92 -1 131
17 210 97 37 38 68 60 94 67 22 6 64 26 94 45 30 20 56 33 59 31 2 -3 -3 -29
-11 -58 -9 -29 -16 -67 -16 -85 0 -22 -12 -47 -40 -83 -67 -84 -80 -112 -80
-166 0 -57 30 -128 101 -240 25 -38 62 -106 83 -150 62 -133 106 -175 180
-175 52 0 90 38 121 123 15 39 33 82 41 93 7 12 58 49 113 83 181 111 189 147
76 368 -69 135 -84 173 -70 173 14 0 67 -33 140 -89 98 -75 157 -95 253 -86
261 25 463 103 605 234 40 37 120 108 179 159 250 218 285 339 136 477 -137
127 -536 276 -748 279 -83 1 -144 -28 -273 -132 -50 -41 -108 -85 -128 -98
-36 -25 -94 -46 -102 -38 -3 3 15 34 39 70 65 96 67 152 7 206 -27 24 -104 58
-134 58 -42 0 -89 -40 -128 -110 -21 -36 -41 -64 -46 -63 -6 2 -11 24 -13 50
-2 35 10 87 44 193 79 246 73 298 -50 504 -133 221 -282 397 -377 444 -56 27
-129 29 -179 4z"/>
</g>
</svg>
